<svg width="146" height="96" viewBox="0 0 146 96" fill="none" xmlns="http://www.w3.org/2000/svg">
<mask id="mask0_0:699" style="mask-type:alpha" maskUnits="userSpaceOnUse" x="0" y="73" width="21" height="22">
<path fill-rule="evenodd" clip-rule="evenodd" d="M0 73.4023H20.2226V94.642H0V73.4023Z" fill="white"/>
</mask>
<g mask="url(#mask0_0:699)">
<path fill-rule="evenodd" clip-rule="evenodd" d="M8.48821 90.8091C9.37372 90.8091 10.2154 90.6524 11.0111 90.3398C11.806 90.0257 12.425 89.6094 12.8689 89.088C13.4426 88.6448 13.7298 88.1487 13.7298 87.6011V85.2549C13.1031 85.0199 12.425 84.831 11.6954 84.6866C10.9658 84.5445 10.2615 84.4723 9.58338 84.4723C8.2271 84.4723 7.11887 84.7787 6.25871 85.3908C5.39778 86.0037 4.9677 86.7801 4.9677 87.7186C4.9677 88.6057 5.30562 89.3422 5.98454 89.9289C6.66268 90.5149 7.49673 90.8091 8.48821 90.8091M7.00137 94.6422C6.00988 94.6422 5.08521 94.4786 4.22428 94.1529C3.36412 93.8273 2.6207 93.3711 1.99478 92.7836C1.36886 92.1976 0.87964 91.5125 0.527896 90.73C0.176152 89.9481 -0.000488281 89.088 -0.000488281 88.1487C-0.000488281 87.1841 0.21532 86.2909 0.6454 85.4692C1.07548 84.6482 1.67529 83.9501 2.44482 83.3764C3.21359 82.8034 4.13289 82.3534 5.20271 82.027C6.271 81.7021 7.4445 81.5385 8.72246 81.5385C9.63561 81.5385 10.528 81.6161 11.402 81.7728C12.2752 81.9287 13.0509 82.1514 13.7298 82.4379V81.2644C13.7298 79.9096 13.3443 78.8651 12.5755 78.1355C11.806 77.4052 10.6647 77.0396 9.1533 77.0396C8.05737 77.0396 6.98831 77.2354 5.94537 77.6263C4.90242 78.018 3.83337 78.5917 2.7382 79.3474L1.13385 76.0228C3.76809 74.2763 6.61046 73.4023 9.66172 73.4023C12.6085 73.4023 14.8964 74.1258 16.5261 75.5735C18.1558 77.0204 18.9706 79.1132 18.9706 81.8511V88.227C18.9706 88.7754 19.0689 89.1655 19.2648 89.4006C19.4599 89.6356 19.7794 89.7661 20.2225 89.7922V94.2505C19.3362 94.4333 18.5667 94.5246 17.9146 94.5246C16.9232 94.5246 16.1605 94.3027 15.626 93.8596C15.0922 93.4172 14.7597 92.8297 14.6291 92.1001L14.5116 90.965C13.5985 92.1653 12.4903 93.077 11.187 93.7037C9.8829 94.3288 8.48821 94.6422 7.00137 94.6422" fill="#294380"/>
</g>
<path fill-rule="evenodd" clip-rule="evenodd" d="M47.4074 78.2915C45.8169 78.3176 44.3961 78.6248 43.1442 79.2108C41.8924 79.7975 40.9923 80.6777 40.4455 81.8512V94.2505H35.2031V73.7542H40.0146V78.1356C40.3794 77.4313 40.8103 76.7993 41.3057 76.2379C41.801 75.678 42.3355 75.1888 42.9092 74.771C43.4829 74.3547 44.0635 74.0345 44.6503 73.8133C45.237 73.5921 45.8038 73.48 46.3514 73.48H46.9973C47.1401 73.48 47.2769 73.4938 47.4074 73.5191V78.2915Z" fill="#294380"/>
<mask id="mask1_0:699" style="mask-type:alpha" maskUnits="userSpaceOnUse" x="59" y="73" width="21" height="22">
<path fill-rule="evenodd" clip-rule="evenodd" d="M59.377 73.4021H79.5216V94.642H59.377V73.4021Z" fill="white"/>
</mask>
<g mask="url(#mask1_0:699)">
<path fill-rule="evenodd" clip-rule="evenodd" d="M59.377 84.0028C59.377 82.5689 59.6242 81.2127 60.1204 79.9347C60.6157 78.6575 61.333 77.5355 62.2715 76.5701C63.2108 75.6063 64.3451 74.836 65.6746 74.2623C67.0047 73.6893 68.5039 73.4021 70.1735 73.4021C72.4153 73.4021 74.3253 73.8852 75.9035 74.8498C77.481 75.8144 78.6607 77.0785 79.4433 78.6437L74.3192 80.2089C73.876 79.4524 73.2885 78.8718 72.5589 78.4678C71.8285 78.0639 71.0198 77.8619 70.1336 77.8619C69.3771 77.8619 68.6728 78.0116 68.0216 78.3112C67.3695 78.6114 66.802 79.0285 66.3204 79.563C65.8374 80.0975 65.4595 80.7434 65.1853 81.4991C64.9119 82.2564 64.7752 83.0904 64.7752 84.0028C64.7752 84.9152 64.9181 85.7492 65.2053 86.5065C65.4918 87.2622 65.8765 87.9142 66.3588 88.4618C66.8411 89.0094 67.4087 89.4333 68.0607 89.7329C68.7128 90.0331 69.404 90.1829 70.1336 90.1829C71.0728 90.1829 71.9391 89.9479 72.7355 89.4786C73.5304 89.0094 74.0842 88.4357 74.3975 87.7576L79.5216 89.3227C78.8173 90.8872 77.6569 92.1651 76.0402 93.1558C74.4228 94.1465 72.4806 94.6427 70.2119 94.6427C68.543 94.6427 67.0439 94.3547 65.7137 93.781C64.3843 93.208 63.2492 92.4324 62.3107 91.4539C61.3722 90.4763 60.648 89.3419 60.1396 88.0509C59.6312 86.7607 59.377 85.4105 59.377 84.0028" fill="#294380"/>
</g>
<mask id="mask2_0:699" style="mask-type:alpha" maskUnits="userSpaceOnUse" x="92" y="73" width="23" height="22">
<path fill-rule="evenodd" clip-rule="evenodd" d="M92.5864 73.4019H114.1V94.6419H92.5864V73.4019Z" fill="white"/>
</mask>
<g mask="url(#mask2_0:699)">
<path fill-rule="evenodd" clip-rule="evenodd" d="M108.702 82.2815C108.572 80.7432 108.004 79.5113 107 78.5851C105.996 77.6589 104.778 77.1965 103.343 77.1965C102.639 77.1965 101.981 77.3202 101.368 77.5675C100.755 77.8163 100.214 78.1619 99.745 78.6043C99.2757 79.0482 98.8909 79.582 98.5906 80.2086C98.2904 80.8338 98.1145 81.5258 98.0623 82.2815H108.702ZM103.382 94.6424C101.74 94.6424 100.253 94.3613 98.9232 93.8007C97.593 93.2408 96.4594 92.4774 95.5202 91.5128C94.5817 90.5482 93.8575 89.4269 93.349 88.149C92.8406 86.8718 92.5864 85.5286 92.5864 84.1201C92.5864 82.6593 92.8337 81.2838 93.3291 79.9936C93.8252 78.7026 94.5425 77.5675 95.481 76.5906C96.4203 75.6122 97.56 74.8365 98.9032 74.2628C100.246 73.6891 101.753 73.4019 103.421 73.4019C105.09 73.4019 106.583 73.6891 107.9 74.2628C109.217 74.8365 110.339 75.6068 111.264 76.5699C112.19 77.5352 112.894 78.6573 113.377 79.9345C113.858 81.2124 114.1 82.5426 114.1 83.9242C114.1 84.2637 114.093 84.5893 114.08 84.9019C114.067 85.2145 114.034 85.4756 113.983 85.6845H98.1406C98.2197 86.4932 98.414 87.2097 98.7281 87.8356C99.0407 88.4616 99.4439 88.9961 99.94 89.4392C100.435 89.8831 100.997 90.2218 101.622 90.4568C102.249 90.6911 102.899 90.8093 103.578 90.8093C104.621 90.8093 105.606 90.5544 106.531 90.0459C107.456 89.5375 108.089 88.8663 108.429 88.0315L112.926 89.2833C112.17 90.8477 110.964 92.1326 109.308 93.1364C107.652 94.1402 105.677 94.6424 103.382 94.6424V94.6424Z" fill="#294380"/>
</g>
<mask id="mask3_0:699" style="mask-type:alpha" maskUnits="userSpaceOnUse" x="127" y="73" width="18" height="22">
<path fill-rule="evenodd" clip-rule="evenodd" d="M127.125 73.3633H144.688V94.6419H127.125V73.3633Z" fill="white"/>
</mask>
<g mask="url(#mask3_0:699)">
<path fill-rule="evenodd" clip-rule="evenodd" d="M136.396 94.6423C134.675 94.6423 132.992 94.3681 131.35 93.8205C129.707 93.2729 128.299 92.4903 127.125 91.4735L129.082 88.188C130.333 89.075 131.551 89.7463 132.738 90.2024C133.925 90.6586 135.105 90.8867 136.279 90.8867C137.321 90.8867 138.142 90.6909 138.743 90.3008C139.343 89.9091 139.642 89.3484 139.642 88.6181C139.642 87.8885 139.291 87.3539 138.586 87.0145C137.883 86.6758 136.734 86.2849 135.144 85.841C133.814 85.4754 132.68 85.1237 131.741 84.785C130.803 84.4463 130.045 84.0615 129.472 83.6307C128.898 83.2014 128.481 82.7052 128.221 82.1446C127.96 81.584 127.83 80.912 127.83 80.1301C127.83 79.0872 128.031 78.1487 128.436 77.3139C128.84 76.4798 129.406 75.7687 130.138 75.1819C130.867 74.5952 131.721 74.1459 132.7 73.8325C133.677 73.5192 134.739 73.3633 135.888 73.3633C137.426 73.3633 138.866 73.5852 140.21 74.0276C141.552 74.4715 142.784 75.1888 143.906 76.1795L141.794 79.3475C140.751 78.5649 139.74 77.992 138.762 77.6264C137.785 77.2616 136.813 77.0789 135.848 77.0789C134.961 77.0789 134.218 77.2616 133.619 77.6264C133.019 77.992 132.719 78.5788 132.719 79.3867C132.719 79.7523 132.79 80.0518 132.934 80.2868C133.077 80.521 133.306 80.7307 133.619 80.912C133.932 81.0947 134.342 81.2714 134.851 81.4411C135.359 81.6101 135.991 81.7867 136.748 81.9687C138.156 82.3343 139.361 82.6991 140.366 83.0639C141.37 83.4287 142.191 83.8457 142.83 84.3157C143.469 84.785 143.938 85.3264 144.239 85.9385C144.538 86.5521 144.688 87.2887 144.688 88.1488C144.688 90.1571 143.945 91.7415 142.459 92.9012C140.973 94.0616 138.951 94.6423 136.396 94.6423" fill="#294380"/>
</g>
<mask id="mask4_0:699" style="mask-type:alpha" maskUnits="userSpaceOnUse" x="0" y="0" width="146" height="55">
<path fill-rule="evenodd" clip-rule="evenodd" d="M0 0.128174H145.321V54.1709H0V0.128174Z" fill="white"/>
</mask>
<g mask="url(#mask4_0:699)">
<path fill-rule="evenodd" clip-rule="evenodd" d="M125.198 54.1545C119.732 54.1538 114.266 54.1238 108.798 54.1707C107.058 54.1852 105.678 53.5716 104.467 52.3689C96.3676 44.3287 88.2545 36.3016 80.1467 28.2706C78.4387 26.5779 76.7291 24.8868 75.0257 23.1903C72.9336 21.106 71.3224 21.0614 69.1604 23.1465C61.1041 30.9156 53.0685 38.7054 45.023 46.486C42.8864 48.5527 40.7368 50.6064 38.6056 52.6784C37.5434 53.7099 36.2916 54.1653 34.8124 54.163C24.2724 54.1491 13.7331 54.1576 3.19386 54.1545C1.59719 54.1545 0.643333 53.5609 0.190213 52.3221C-0.262907 51.0825 0.0888373 49.9582 1.28461 48.9651C5.59156 45.3909 9.90157 41.8204 14.2193 38.26C15.8205 36.9406 16.5709 36.8907 18.3734 37.8929C20.7027 39.1885 23.0351 40.4803 25.3622 41.7797C27.127 42.7651 27.7783 42.6998 29.1861 41.3005C39.5425 31.0032 49.8944 20.7012 60.2493 10.4023C63.1946 7.47395 66.1391 4.5448 69.099 1.63101C71.1726 -0.409569 73.0135 -0.366561 75.1048 1.72624C88.0909 14.7147 101.077 27.7023 114.063 40.6899C115.909 42.5362 116.3 42.5961 118.641 41.4725C121.36 40.1677 124.085 38.8767 126.805 37.5757C128.12 36.9459 129.295 37.0834 130.453 38.025C134.897 41.6369 139.373 45.2089 143.834 48.8008C145.215 49.9129 145.602 50.9934 145.127 52.3221C144.681 53.5701 143.693 54.1545 141.991 54.1545C136.394 54.1576 130.796 54.1561 125.198 54.1545" fill="#294380"/>
</g>
<path fill-rule="evenodd" clip-rule="evenodd" d="M71.555 54.1553C65.1284 54.1545 58.7025 54.1384 52.2759 54.1676C50.9312 54.1737 49.8537 53.8612 49.3145 52.5141C48.7923 51.21 49.3683 50.2723 50.2922 49.3845C56.4992 43.4194 62.6769 37.4237 68.8878 31.4632C70.8385 29.5916 72.7024 29.6346 74.6293 31.5254C80.7142 37.492 86.7921 43.4663 92.8632 49.4475C94.2318 50.7961 94.3792 52.4258 93.1128 53.4311C92.556 53.8735 91.692 54.12 90.9655 54.1261C84.4958 54.1783 78.0254 54.1561 71.555 54.1553" fill="#294380"/>
<mask id="mask5_0:699" style="mask-type:alpha" maskUnits="userSpaceOnUse" x="0" y="0" width="146" height="95">
<path fill-rule="evenodd" clip-rule="evenodd" d="M0 94.642H145.321V0.128052H0V94.642Z" fill="white"/>
</mask>
<g mask="url(#mask5_0:699)">
<path fill-rule="evenodd" clip-rule="evenodd" d="M94.8088 70.1235H113.183V65.3013H94.8088V70.1235Z" fill="#294380"/>
</g>
</svg>
