<svg width="109" height="93" viewBox="0 0 109 93" fill="none" xmlns="http://www.w3.org/2000/svg">
<path fill-rule="evenodd" clip-rule="evenodd" d="M27.2151 0.00012207L23.5481 6.02418H73.5168L69.5843 0.00012207H27.2151Z" fill="#28437F"/>
<path fill-rule="evenodd" clip-rule="evenodd" d="M35.3887 86.7554L39.0557 92.7794H81.4691L85.357 86.7554H35.3887Z" fill="#28437F"/>
<path fill-rule="evenodd" clip-rule="evenodd" d="M5.61084 56.459L27.5244 92.5154L34.7259 92.7792L8.83603 50.2151L5.61084 56.459Z" fill="#28437F"/>
<path fill-rule="evenodd" clip-rule="evenodd" d="M21.4718 9.9816L0 46.3458L3.22519 52.7656L28.5407 9.84924L21.4718 9.9816Z" fill="#28437F"/>
<path fill-rule="evenodd" clip-rule="evenodd" d="M74.0466 0.175903L99.7598 42.828L103.206 36.8039L81.1155 0.175903H74.0466Z" fill="#28437F"/>
<path fill-rule="evenodd" clip-rule="evenodd" d="M80.3645 83.0177L105.415 40.1018L108.861 46.4337L87.3009 83.0177H80.3645Z" fill="#28437F"/>
<path fill-rule="evenodd" clip-rule="evenodd" d="M20.4114 47.3571C20.4998 50.8308 22.9739 55.6677 27.878 55.5357C29.7335 55.4918 31.9426 55.0081 34.5051 53.1173C34.0632 54.2166 33.4447 56.1513 32.6936 58.262C30.7055 59.3173 28.2314 59.4931 25.8456 59.4931C19.6162 59.4931 14.5796 53.4251 14.5796 45.95C14.5796 38.4749 19.9696 33.6381 26.1991 33.6381C28.6732 33.682 30.3963 33.8579 31.5449 34.1217C31.5891 36.2763 31.5008 37.3316 31.5449 38.5628C29.2034 37.1118 27.3036 36.9359 25.7573 37.0678C21.5159 37.3756 20.2347 42.5203 20.4114 47.3571" fill="#28437F"/>
<path fill-rule="evenodd" clip-rule="evenodd" d="M53.8121 59.2733C53.8121 59.2733 48.9964 60.8123 41.574 46.3458C39.8952 42.8281 38.879 43.8834 38.879 43.8834C38.879 43.8834 38.9674 53.3812 38.9674 56.2393C38.9674 57.2506 40.2486 58.6137 40.2486 58.6137H35.1678C35.1678 58.6137 35.7864 57.4265 35.7864 56.4152C35.7864 55.6677 35.9631 43.7514 35.7864 37.5955C35.6538 35.6168 34.5051 34.2537 34.5051 34.2537H40.5579L50.0125 49.028C50.0125 49.028 51.0287 49.4677 50.8961 48.1486C50.8078 47.3131 51.2054 36.0125 49.8358 34.2976H55.0049C55.0049 34.2976 53.9004 35.0451 53.9004 36.804C53.9004 38.5189 53.8121 59.2733 53.8121 59.2733" fill="#28437F"/>
<path fill-rule="evenodd" clip-rule="evenodd" d="M65.5639 55.052C64.3269 55.7995 62.162 55.4037 62.162 55.4037V51.0506V46.9173C62.162 46.9173 63.9734 46.5215 65.0779 47.0932C66.4475 47.7967 67.287 49.5995 67.287 51.0506C67.287 52.3697 66.801 54.3044 65.5639 55.052M62.162 40.2337V37.4635C62.162 37.4635 63.8851 37.1557 64.6803 37.7713C65.829 38.6507 65.6965 39.3542 65.6965 40.5415C65.6965 41.5968 65.1663 42.8719 64.1943 43.4875C63.1782 44.1031 62.2062 43.7953 62.2062 43.7953C62.2062 43.7953 62.162 42.3443 62.162 40.2337M72.7654 50.9187C72.5887 46.2577 68.038 44.8067 68.038 44.8067C68.038 44.8067 71.2632 43.0478 71.5283 40.0578C71.7934 37.1117 68.9217 34.2096 66.6684 34.2096H55.6233C55.6233 34.2096 56.5069 34.6933 56.5069 35.5727V56.9867C56.5069 57.7342 55.6233 58.3498 55.6233 58.3498H67.1986C69.4076 58.3938 72.9421 55.5796 72.7654 50.9187" fill="#28437F"/>
<path fill-rule="evenodd" clip-rule="evenodd" d="M83.8548 59.3173C83.8548 59.3173 78.995 58.13 78.1114 55.5357C77.2278 52.8975 70.9541 34.2537 70.9541 34.2537H77.4045L82.0434 51.5344C82.0434 51.5344 82.8387 53.557 83.8548 50.3911C84.5617 48.1925 86.8149 40.6735 87.2126 36.6721C87.3893 34.9572 85.9313 34.2537 85.9313 34.2537H91.2772L83.8548 59.3173Z" fill="#28437F"/>
</svg>
