<svg width="97" height="39" viewBox="0 0 97 39" fill="none" xmlns="http://www.w3.org/2000/svg">
<path fill-rule="evenodd" clip-rule="evenodd" d="M11.2751 0.00012207L9.75586 2.49589H30.4579L28.8286 0.00012207H11.2751Z" fill="#9B9B9B"/>
<path fill-rule="evenodd" clip-rule="evenodd" d="M14.6616 35.9426L16.1809 38.4384H33.7527L35.3634 35.9426H14.6616Z" fill="#9B9B9B"/>
<path fill-rule="evenodd" clip-rule="evenodd" d="M2.32471 23.3909L11.4035 38.3291L14.387 38.4384L3.6609 20.8041L2.32471 23.3909Z" fill="#9B9B9B"/>
<path fill-rule="evenodd" clip-rule="evenodd" d="M8.89575 4.1354L0 19.2011L1.33619 21.8608L11.8244 4.08057L8.89575 4.1354Z" fill="#9B9B9B"/>
<path fill-rule="evenodd" clip-rule="evenodd" d="M30.6775 0.072876L41.3304 17.7436L42.7583 15.2478L33.6061 0.072876H30.6775Z" fill="#9B9B9B"/>
<path fill-rule="evenodd" clip-rule="evenodd" d="M33.2949 34.3942L43.6733 16.6141L45.101 19.2374L36.1687 34.3942H33.2949Z" fill="#9B9B9B"/>
<path fill-rule="evenodd" clip-rule="evenodd" d="M8.45641 19.6199C8.49302 21.0591 9.51804 23.063 11.5498 23.0083C12.3186 22.9901 13.2338 22.7897 14.2954 22.0064C14.1123 22.4618 13.8561 23.2634 13.5449 24.1378C12.7212 24.575 11.6962 24.6479 10.7078 24.6479C8.12694 24.6479 6.04028 22.1339 6.04028 19.037C6.04028 15.9401 8.27337 13.9362 10.8542 13.9362C11.8793 13.9544 12.5931 14.0272 13.069 14.1365C13.0873 15.0292 13.0507 15.4664 13.069 15.9765C12.0989 15.3753 11.3118 15.3025 10.6712 15.3571C8.91401 15.4846 8.3832 17.616 8.45641 19.6199" fill="#9B9B9B"/>
<path fill-rule="evenodd" clip-rule="evenodd" d="M22.2943 24.5568C22.2943 24.5568 20.2991 25.1944 17.2241 19.2009C16.5285 17.7435 16.1075 18.1807 16.1075 18.1807C16.1075 18.1807 16.1441 22.1157 16.1441 23.2998C16.1441 23.7188 16.6749 24.2835 16.6749 24.2835H14.57C14.57 24.2835 14.8262 23.7917 14.8262 23.3727C14.8262 23.063 14.8994 18.1261 14.8262 15.5757C14.7713 14.7559 14.2954 14.1912 14.2954 14.1912H16.8031L20.7201 20.3122C20.7201 20.3122 21.1411 20.4943 21.0862 19.9478C21.0496 19.6017 21.2143 14.9199 20.6469 14.2094H22.7885C22.7885 14.2094 22.3309 14.5191 22.3309 15.2478C22.3309 15.9582 22.2943 24.5568 22.2943 24.5568" fill="#9B9B9B"/>
<path fill-rule="evenodd" clip-rule="evenodd" d="M27.1631 22.808C26.6506 23.1176 25.7537 22.9537 25.7537 22.9537V21.1502V19.4378C25.7537 19.4378 26.5041 19.2738 26.9617 19.5106C27.5292 19.8021 27.8769 20.549 27.8769 21.1502C27.8769 21.6967 27.6756 22.4983 27.1631 22.808M25.7537 16.6687V15.5211C25.7537 15.5211 26.4675 15.3935 26.797 15.6486C27.2729 16.0129 27.218 16.3044 27.218 16.7963C27.218 17.2335 26.9983 17.7618 26.5957 18.0168C26.1747 18.2719 25.772 18.1443 25.772 18.1443C25.772 18.1443 25.7537 17.5432 25.7537 16.6687M30.1466 21.0955C30.0734 19.1645 28.1881 18.5633 28.1881 18.5633C28.1881 18.5633 29.5243 17.8346 29.6341 16.5959C29.7439 15.3753 28.5542 14.173 27.6207 14.173H23.0447C23.0447 14.173 23.4108 14.3734 23.4108 14.7377V23.6095C23.4108 23.9192 23.0447 24.1742 23.0447 24.1742H27.8403C28.7555 24.1925 30.2198 23.0266 30.1466 21.0955" fill="#9B9B9B"/>
<path fill-rule="evenodd" clip-rule="evenodd" d="M34.741 24.575C34.741 24.575 32.7276 24.0831 32.3615 23.0083C31.9954 21.9153 29.3962 14.1912 29.3962 14.1912H32.0686L33.9905 21.3505C33.9905 21.3505 34.32 22.1885 34.741 20.8769C35.0339 19.966 35.9674 16.8509 36.1321 15.1931C36.2053 14.4826 35.6013 14.1912 35.6013 14.1912H37.8161L34.741 24.575Z" fill="#9B9B9B"/>
<path fill-rule="evenodd" clip-rule="evenodd" d="M50.464 7.92444C50.5555 9.32717 51.727 10.1469 52.935 10.1287C53.3926 10.1105 53.9235 9.92834 54.5458 9.49112C54.5458 9.63686 54.4726 10.0194 54.1431 10.5113C53.6672 10.7481 53.0083 10.7299 52.4408 10.7299C50.9216 10.7299 49.4573 9.32717 49.4573 7.59653C49.4573 5.86589 51.0314 4.75464 52.5323 4.75464C53.1364 4.77286 53.9235 4.95503 54.198 5.00968V6.02985C53.9235 5.70194 53.6306 5.51976 52.4225 5.39224C51.3792 5.46511 50.3908 6.32132 50.464 7.92444" fill="#9B9B9B"/>
<path fill-rule="evenodd" clip-rule="evenodd" d="M62.5265 16.0493C62.618 17.452 63.7895 18.2718 64.9975 18.2536C65.4551 18.2354 65.986 18.0532 66.6083 17.616C66.6083 17.7617 66.5351 18.1443 66.2056 18.6362C65.7297 18.873 65.0708 18.8548 64.5033 18.8548C62.9841 18.8548 61.5198 17.452 61.5198 15.7214C61.5198 13.9908 63.0939 12.8795 64.5948 12.8795C65.1989 12.8977 65.986 13.0799 66.2605 13.1346V14.1547C65.986 13.8268 65.6931 13.6446 64.485 13.5171C63.4417 13.6082 62.4533 14.4462 62.5265 16.0493" fill="#9B9B9B"/>
<path fill-rule="evenodd" clip-rule="evenodd" d="M64.5949 24.7572C64.6864 26.1599 65.8578 26.9797 67.0659 26.9615C67.5235 26.9433 68.0543 26.7611 68.6766 26.3239C68.6766 26.4696 68.6034 26.8522 68.274 27.3441C67.7798 27.5809 67.1391 27.5627 66.5717 27.5627C65.0525 27.5627 63.5881 26.1599 63.5881 24.4293C63.5881 22.6987 65.1623 21.5874 66.6632 21.5874C67.2672 21.6056 68.0543 21.7878 68.3289 21.8424V22.8626C68.0543 22.5347 67.7614 22.3525 66.5534 22.225C65.4918 22.3161 64.5033 23.1541 64.5949 24.7572" fill="#9B9B9B"/>
<path fill-rule="evenodd" clip-rule="evenodd" d="M54.4544 18.9277C54.4544 18.9277 53.8137 19.0917 51.0498 15.1568C50.5922 14.337 50.0431 14.337 50.0431 14.337C50.0614 15.7397 50.0614 16.7234 50.0614 18.2173C50.0614 18.4541 50.4275 18.7638 50.4275 18.7638H49.2743C49.2743 18.7638 49.4574 18.4905 49.4574 18.2537C49.4574 18.0715 49.494 15.2843 49.4574 13.8451C49.4208 13.3715 49.0913 13.0618 49.0913 13.0618H50.336L53.7222 17.361C53.7222 17.361 53.9968 17.4703 53.9785 17.1606C53.9602 16.9603 54.07 13.4808 53.6856 13.0618H54.8022C54.8022 13.0618 54.491 13.2439 54.491 13.6447C54.491 14.0637 54.4544 18.9277 54.4544 18.9277" fill="#9B9B9B"/>
<path fill-rule="evenodd" clip-rule="evenodd" d="M81.3247 18.9277C81.3247 18.9277 80.6841 19.0917 77.9202 15.1568C77.4626 14.337 76.9135 14.337 76.9135 14.337C76.9318 15.7397 76.9318 16.7234 76.9318 18.2173C76.9318 18.4541 77.2979 18.7638 77.2979 18.7638H76.1447C76.1447 18.7638 76.3277 18.4905 76.3277 18.2537C76.3277 18.0715 76.3644 15.2843 76.3277 13.8451C76.2911 13.3715 75.9617 13.0618 75.9617 13.0618H77.2063L80.5926 17.361C80.5926 17.361 80.8671 17.4703 80.8488 17.1606C80.8305 16.9603 80.9404 13.4808 80.556 13.0618H81.6725C81.6725 13.0618 81.3614 13.2439 81.3614 13.6447C81.3614 14.0637 81.3247 18.9277 81.3247 18.9277" fill="#9B9B9B"/>
<path fill-rule="evenodd" clip-rule="evenodd" d="M63.0205 27.6538C63.0205 27.6538 62.3799 27.8178 59.616 23.8828C59.1584 23.063 58.6093 23.063 58.6093 23.063C58.6276 24.4658 58.6276 25.4495 58.6276 26.9433C58.6276 27.1801 58.9937 27.4898 58.9937 27.4898H57.8405C57.8405 27.4898 58.0236 27.2166 58.0236 26.9798C58.0236 26.7976 58.0602 24.0103 58.0236 22.5712C57.9869 22.0975 57.6575 21.7878 57.6575 21.7878H58.9021L62.2884 26.0871C62.2884 26.0871 62.5629 26.1964 62.5263 25.8867C62.508 25.6863 62.6179 22.2068 62.2335 21.7878H63.35C63.35 21.7878 63.0388 21.97 63.0388 22.3708C63.0572 22.7898 63.0205 27.6538 63.0205 27.6538" fill="#9B9B9B"/>
<path fill-rule="evenodd" clip-rule="evenodd" d="M91.1355 10.7845C91.1355 10.7845 90.4949 10.9485 87.731 7.01356C87.2734 6.19379 86.7243 6.19379 86.7243 6.19379C86.7426 7.59652 86.7426 8.58025 86.7426 10.0741C86.7426 10.3109 87.1087 10.6206 87.1087 10.6206H85.9555C85.9555 10.6206 86.1385 10.3473 86.1385 10.1105C86.1385 9.92832 86.1751 7.14108 86.1385 5.70192C86.1019 5.22827 85.7725 4.91858 85.7725 4.91858H87.0171L90.4034 9.21785C90.4034 9.21785 90.6962 9.32715 90.6596 9.01746C90.6413 8.81707 90.7511 5.33758 90.3668 4.91858H91.4833C91.4833 4.91858 91.1721 5.10075 91.1721 5.50153C91.1721 5.92053 91.1355 10.7845 91.1355 10.7845" fill="#9B9B9B"/>
<path fill-rule="evenodd" clip-rule="evenodd" d="M49.2927 26.7247C48.5056 27.0344 47.6819 26.7429 47.6819 26.7429V25.7045V24.575C47.6819 24.575 48.5788 24.4293 49.128 24.7208C49.549 24.9394 49.8418 25.3584 49.8418 25.7045C49.8418 25.996 49.7869 26.5425 49.2927 26.7247M47.6819 23.1359V22.2979C47.6819 22.2979 48.4141 22.2432 48.6521 22.3161C49.3659 22.5347 49.3659 22.9355 49.3659 23.2088C49.3659 23.4638 49.3476 23.6642 48.6155 23.9557C48.3592 24.065 47.6819 24.0285 47.6819 24.0285C47.6819 24.0285 47.6819 23.6277 47.6819 23.1359M50.4459 25.6681C50.4092 24.5568 49.3293 24.2289 49.3293 24.2289C49.3293 24.2289 50.0981 23.8099 50.153 23.1177C50.2262 22.4254 49.5307 21.7332 48.9998 21.7332H46.4922C46.4922 21.7332 46.6935 21.8607 46.6935 22.0611V27.1255C46.6935 27.3076 46.4922 27.4534 46.4922 27.4534H49.1097C49.6588 27.4352 50.5008 26.7611 50.4459 25.6681" fill="#9B9B9B"/>
<path fill-rule="evenodd" clip-rule="evenodd" d="M61.8126 36.0702C61.8126 36.0702 60.934 35.7969 60.7327 35.1775C60.5313 34.5581 58.7559 30.1313 58.7559 30.1313H59.8724L61.2818 34.4671C61.2818 34.4671 61.7394 34.9589 61.9957 34.212C62.1604 33.6837 63.039 31.6434 63.1305 30.6961C63.1671 30.2953 62.8193 30.1313 62.8193 30.1313H64.0823L61.8126 36.0702Z" fill="#9B9B9B"/>
<path fill-rule="evenodd" clip-rule="evenodd" d="M58.0054 10.1105C56.5411 10.1105 55.7723 9.05388 55.7723 7.74224C55.7723 6.4306 56.5411 5.374 58.0054 5.374C59.4697 5.374 60.2751 6.4306 60.2751 7.74224C60.2751 9.05388 59.488 10.1105 58.0054 10.1105M58.0237 4.77283C56.1933 4.77283 54.7107 6.10269 54.7107 7.74224C54.7107 9.38179 56.1933 10.7117 58.0237 10.7117C59.8541 10.7117 61.3367 9.38179 61.3367 7.74224C61.3367 6.10269 59.8541 4.77283 58.0237 4.77283" fill="#9B9B9B"/>
<path fill-rule="evenodd" clip-rule="evenodd" d="M81.8555 10.1105C80.3912 10.1105 79.6224 9.05388 79.6224 7.74224C79.6224 6.4306 80.3912 5.374 81.8555 5.374C83.3198 5.374 84.1252 6.4306 84.1252 7.74224C84.1252 9.05388 83.3198 10.1105 81.8555 10.1105M81.8738 4.77283C80.0434 4.77283 78.5608 6.10269 78.5608 7.74224C78.5608 9.38179 80.0434 10.7117 81.8738 10.7117C83.7042 10.7117 85.1868 9.38179 85.1868 7.74224C85.1685 6.10269 83.6859 4.77283 81.8738 4.77283" fill="#9B9B9B"/>
<path fill-rule="evenodd" clip-rule="evenodd" d="M72.2093 18.3084C70.7449 18.3084 69.9762 17.2518 69.9762 15.9401C69.9762 14.6285 70.7449 13.5719 72.2093 13.5719C73.6736 13.5719 74.479 14.6285 74.479 15.9401C74.479 17.2518 73.6736 18.3084 72.2093 18.3084M72.2093 12.9707C70.3789 12.9707 68.8962 14.3006 68.8962 15.9401C68.8962 17.5797 70.3789 18.9095 72.2093 18.9095C74.0397 18.9095 75.5223 17.5797 75.5223 15.9401C75.5223 14.3006 74.0397 12.9707 72.2093 12.9707" fill="#9B9B9B"/>
<path fill-rule="evenodd" clip-rule="evenodd" d="M78.2495 35.3961C76.7852 35.3961 76.0165 34.3395 76.0165 33.0279C76.0165 31.7162 76.7852 30.6596 78.2495 30.6596C79.7139 30.6596 80.5192 31.7162 80.5192 33.0279C80.5009 34.3213 79.7139 35.3961 78.2495 35.3961M78.2495 30.0585C76.4191 30.0585 74.9365 31.3883 74.9365 33.0279C74.9365 34.6674 76.4191 35.9973 78.2495 35.9973C80.0799 35.9973 81.5626 34.6674 81.5626 33.0279C81.5626 31.3701 80.0799 30.0585 78.2495 30.0585" fill="#9B9B9B"/>
<path fill-rule="evenodd" clip-rule="evenodd" d="M49.7319 34.8678C48.7252 35.6147 47.3707 35.2685 47.3707 35.2685V30.8417C47.3707 30.8417 48.8167 30.4045 49.915 31.2972C50.3909 31.698 50.6288 32.4266 50.5922 32.9367C50.5739 33.2464 50.5922 34.4123 49.7319 34.8678M48.7618 30.2588H46.2542C46.2542 30.2588 46.4555 30.3863 46.4555 30.5867V35.6511C46.4555 35.8333 46.2542 35.979 46.2542 35.979H48.8716C51.5257 35.979 51.5257 32.7728 51.5257 32.7728C51.5257 32.7728 51.4159 30.2588 48.7618 30.2588" fill="#9B9B9B"/>
<path fill-rule="evenodd" clip-rule="evenodd" d="M56.0468 34.9771C55.9003 35.1046 55.7173 35.1411 55.6441 35.1775C54.6191 35.5236 53.411 35.2504 53.411 35.2504V33.0643C53.7771 33.0279 54.3079 33.0279 54.8204 33.2283V32.4813H53.4293V30.8236C53.4293 30.8236 54.4177 30.5321 55.3695 30.8964V30.1495H52.3311C52.3311 30.1495 52.5324 30.3499 52.5324 30.5503V35.6147C52.5324 35.7969 52.3311 35.9426 52.3311 35.9426H54.9485H55.699C55.882 35.9062 56.0834 35.2686 56.0468 34.9771" fill="#9B9B9B"/>
<path fill-rule="evenodd" clip-rule="evenodd" d="M90.6598 34.9771C90.5134 35.1046 90.3303 35.1411 90.2571 35.1775C89.2321 35.5236 88.024 35.2504 88.024 35.2504V33.0643C88.3901 33.0279 88.9209 33.0279 89.4334 33.2283V32.4813H88.024V30.8236C88.024 30.8236 89.0124 30.5321 89.9642 30.8964V30.1495H86.9258C86.9258 30.1495 87.1271 30.3499 87.1271 30.5503V35.6147C87.1271 35.7969 86.9258 35.9426 86.9258 35.9426H89.5433H90.2937C90.4951 35.9062 90.6964 35.2686 90.6598 34.9771" fill="#9B9B9B"/>
<path fill-rule="evenodd" clip-rule="evenodd" d="M66.5716 33.0825C66.2238 33.0825 66.2604 32.8639 66.2604 32.8639C66.2604 32.8639 66.8462 31.3154 66.9194 31.115C67.0841 30.8782 67.3587 31.6069 67.3587 31.6069C67.3587 31.6069 67.5966 32.1716 67.8712 32.8639C67.8712 32.8639 67.9078 33.0825 67.56 33.0825H66.5716ZM70.2507 35.979C70.2507 35.979 69.9395 35.7969 69.5003 34.9042C68.823 33.629 67.6515 30.1677 67.6515 30.1677H66.535C66.535 30.1677 66.6265 30.4956 66.4984 30.8782C66.0408 32.2445 64.8327 35.2139 64.668 35.4507C64.3019 35.9608 64.064 35.9972 64.064 35.9972L65.6198 35.9426C65.6198 35.9426 65.272 35.7786 65.3086 35.3779C65.3086 35.3414 65.6015 34.5945 65.931 33.7383H68.219C68.4752 34.3759 68.6949 34.9406 68.7681 35.141C68.9328 35.6511 68.7498 35.9972 68.7498 35.9972H70.2507V35.979Z" fill="#9B9B9B"/>
<path fill-rule="evenodd" clip-rule="evenodd" d="M71.2574 24.575C70.9096 24.575 70.9462 24.3564 70.9462 24.3564C70.9462 24.3564 71.532 22.808 71.6052 22.6076C71.7699 22.3708 72.0445 23.0994 72.0445 23.0994C72.0445 23.0994 72.2824 23.6642 72.557 24.3564C72.557 24.3564 72.5936 24.575 72.2458 24.575H71.2574ZM74.9365 27.4716C74.9365 27.4716 74.6253 27.2894 74.186 26.3968C73.5088 25.1216 72.3373 21.6603 72.3373 21.6603H71.2208C71.2208 21.6603 71.3123 21.9882 71.1842 22.3708C70.7266 23.737 69.5185 26.7065 69.3538 26.9433C68.9877 27.4534 68.7498 27.4898 68.7498 27.4898L70.3056 27.4351C70.3056 27.4351 69.9578 27.2712 69.9944 26.8704C69.9944 26.834 70.2873 26.0871 70.6168 25.2309H72.9048C73.161 25.8685 73.3807 26.4332 73.4539 26.6336C73.6186 27.1437 73.4356 27.4898 73.4356 27.4898H74.9365V27.4716Z" fill="#9B9B9B"/>
<path fill-rule="evenodd" clip-rule="evenodd" d="M84.2533 24.575C83.9055 24.575 83.9421 24.3564 83.9421 24.3564C83.9421 24.3564 84.5278 22.808 84.601 22.6076C84.7658 22.3708 85.0403 23.0994 85.0403 23.0994C85.0403 23.0994 85.2783 23.6642 85.5528 24.3564C85.5528 24.3564 85.5894 24.575 85.2417 24.575H84.2533ZM87.9324 27.4716C87.9324 27.4716 87.6212 27.2894 87.1819 26.3968C86.5046 25.1216 85.3332 21.6603 85.3332 21.6603H84.2166C84.2166 21.6603 84.3082 21.9882 84.18 22.3708C83.7224 23.737 82.5144 26.7065 82.3496 26.9433C81.9836 27.4534 81.7456 27.4898 81.7456 27.4898L83.3014 27.4351C83.3014 27.4351 82.9537 27.2712 82.9903 26.8704C82.9903 26.834 83.2831 26.0871 83.6126 25.2309H85.9006C86.1569 25.8685 86.3765 26.4332 86.4497 26.6336C86.6145 27.1437 86.4314 27.4898 86.4314 27.4898H87.9324V27.4716Z" fill="#9B9B9B"/>
<path fill-rule="evenodd" clip-rule="evenodd" d="M84.2533 15.94C83.9055 15.94 83.9421 15.7214 83.9421 15.7214C83.9421 15.7214 84.5278 14.173 84.601 13.9726C84.7658 13.7357 85.0403 14.4644 85.0403 14.4644C85.0403 14.4644 85.2783 15.0292 85.5528 15.7214C85.5528 15.7214 85.5894 15.94 85.2417 15.94H84.2533ZM87.9324 18.8366C87.9324 18.8366 87.6212 18.6544 87.1819 17.7618C86.5046 16.4865 85.3332 13.0253 85.3332 13.0253H84.2166C84.2166 13.0253 84.3082 13.3532 84.18 13.7357C83.7224 15.102 82.5144 18.0714 82.3496 18.3083C81.9836 18.8184 81.7456 18.8548 81.7456 18.8548L83.3014 18.8001C83.3014 18.8001 82.9537 18.6362 82.9903 18.2354C82.9903 18.199 83.2831 17.4521 83.6126 16.5959H85.9006C86.1569 17.2335 86.3765 17.7982 86.4497 17.9986C86.6145 18.5087 86.4314 18.8548 86.4314 18.8548H87.9324V18.8366Z" fill="#9B9B9B"/>
<path fill-rule="evenodd" clip-rule="evenodd" d="M57.6392 15.94C57.2915 15.94 57.3281 15.7214 57.3281 15.7214C57.3281 15.7214 57.9138 14.173 57.987 13.9726C58.1517 13.7357 58.4263 14.4644 58.4263 14.4644C58.4263 14.4644 58.6643 15.0292 58.9388 15.7214C58.9388 15.7214 58.9754 15.94 58.6276 15.94H57.6392ZM61.3 18.8366C61.3 18.8366 60.9889 18.6544 60.5496 17.7618C59.8723 16.4865 58.7009 13.0253 58.7009 13.0253H57.5843C57.5843 13.0253 57.6758 13.3532 57.5477 13.7357C57.0901 15.102 55.882 18.0714 55.7173 18.3083C55.3512 18.8184 55.1133 18.8548 55.1133 18.8548L56.6691 18.8001C56.6691 18.8001 56.3213 18.6362 56.358 18.2354C56.358 18.199 56.6508 17.4521 56.9803 16.5959H59.2866C59.5428 17.2335 59.7625 17.7982 59.8357 17.9986C60.0004 18.5087 59.8174 18.8548 59.8174 18.8548H61.3V18.8366Z" fill="#9B9B9B"/>
<path fill-rule="evenodd" clip-rule="evenodd" d="M53.7955 24.5568C53.4477 24.5568 53.4843 24.3382 53.4843 24.3382C53.4843 24.3382 54.07 22.7897 54.1433 22.5894C54.308 22.3525 54.5826 23.0812 54.5826 23.0812C54.5826 23.0812 54.8205 23.646 55.0951 24.3382C55.0951 24.3382 55.1317 24.5568 54.7839 24.5568H53.7955ZM57.4563 27.4716C57.4563 27.4716 57.1451 27.2894 56.7058 26.3968C56.0286 25.1216 54.8571 21.6603 54.8571 21.6603H53.7406C53.7406 21.6603 53.8321 21.9882 53.704 22.3708C53.2464 23.737 52.0383 26.7065 51.8736 26.9433C51.5075 27.4534 51.2695 27.4898 51.2695 27.4898L52.8254 27.4351C52.8254 27.4351 52.4776 27.2712 52.5142 26.8704C52.5142 26.834 52.8071 26.0871 53.1365 25.2309H55.4428C55.6991 25.8685 55.9187 26.4332 55.992 26.6336C56.1567 27.1437 55.9737 27.4898 55.9737 27.4898H57.4563V27.4716Z" fill="#9B9B9B"/>
<path fill-rule="evenodd" clip-rule="evenodd" d="M71.8981 35.1411C71.9164 33.8112 71.953 31.2608 71.953 31.0422C71.953 30.7507 72.0445 30.1495 72.0445 30.1495H70.9279C70.9279 30.1495 71.0195 30.9511 71.0561 31.9348C71.0927 33.4104 71.0378 35.305 71.0378 35.4508C71.0378 35.6876 70.8181 35.9244 70.8181 35.9244H71.4221H71.8614H74.2044C74.2044 35.9244 74.4789 35.305 74.6253 34.9407C73.5454 35.5418 72.4838 35.3415 71.8981 35.1411" fill="#9B9B9B"/>
<path fill-rule="evenodd" clip-rule="evenodd" d="M89.8544 18.0897C89.8727 16.7598 89.9093 14.2094 89.9093 13.9908C89.9093 13.6993 90.0008 13.0981 90.0008 13.0981H88.8842C88.8842 13.0981 88.9758 13.8997 89.0124 14.8834C89.049 16.359 88.9941 18.2536 88.9941 18.3994C88.9941 18.6362 88.7744 18.873 88.7744 18.873H89.3784H89.8177H92.1607C92.1607 18.873 92.4352 18.2536 92.5816 17.8893C91.5017 18.4905 90.4401 18.2901 89.8544 18.0897" fill="#9B9B9B"/>
<path fill-rule="evenodd" clip-rule="evenodd" d="M81.0868 24.9576C81.0868 23.901 81.1051 22.2979 81.1051 22.2068C81.1051 21.97 81.3247 21.7332 81.3247 21.7332H80.7207H80.6475H80.5742H79.9702C79.9702 21.7332 80.1899 21.97 80.1899 22.2068C80.1899 22.2979 80.2082 23.901 80.2082 24.9576C80.2082 25.996 80.1899 26.8886 80.1899 26.9797C80.1899 27.2165 79.9702 27.4534 79.9702 27.4534H80.5742H80.6475H80.7207H81.3247C81.3247 27.4534 81.1051 27.2165 81.1051 26.9797C81.1234 26.8886 81.0868 25.996 81.0868 24.9576" fill="#9B9B9B"/>
<path fill-rule="evenodd" clip-rule="evenodd" d="M77.7738 8.07016C77.7738 7.01356 77.7921 5.41044 77.7921 5.31935C77.7921 5.08253 78.0117 4.8457 78.0117 4.8457H77.4077H77.3345H77.2613H76.6572C76.6572 4.8457 76.8769 5.08253 76.8769 5.31935C76.8769 5.41044 76.8952 7.01356 76.8952 8.07016C76.8952 9.10854 76.8769 10.0012 76.8769 10.0923C76.8769 10.3291 76.6572 10.5659 76.6572 10.5659H77.2613H77.3345H77.4077H78.0117C78.0117 10.5659 77.7921 10.3291 77.7921 10.0923C77.7921 10.0012 77.7738 9.10854 77.7738 8.07016" fill="#9B9B9B"/>
<path fill-rule="evenodd" clip-rule="evenodd" d="M68.2191 16.3591C68.2191 15.3025 68.2374 13.6994 68.2374 13.6083C68.2374 13.3715 68.457 13.1346 68.457 13.1346H67.853H67.7798H67.7066H67.1025C67.1025 13.1346 67.3222 13.3715 67.3222 13.6083C67.3222 13.6994 67.3405 15.3025 67.3405 16.3591C67.3405 17.3975 67.3222 18.2901 67.3222 18.3812C67.3222 18.618 67.1025 18.8549 67.1025 18.8549H67.7066H67.7798H67.853H68.457C68.457 18.8549 68.2374 18.618 68.2374 18.3812C68.2374 18.2901 68.2191 17.3793 68.2191 16.3591" fill="#9B9B9B"/>
<path fill-rule="evenodd" clip-rule="evenodd" d="M71.0377 8.07016C71.0377 7.01356 71.056 5.41044 71.056 5.31935C71.056 5.08253 71.2756 4.8457 71.2756 4.8457H70.6716H70.5984H70.5252H69.9028C69.9028 4.8457 70.1225 5.08253 70.1225 5.31935C70.1225 5.41044 70.1408 7.01356 70.1408 8.07016C70.1408 9.10854 70.1225 10.0012 70.1225 10.0923C70.1225 10.3291 69.9028 10.5659 69.9028 10.5659H70.5069H70.5801H70.6533H71.2573C71.2573 10.5659 71.0377 10.3291 71.0377 10.0923C71.0743 10.0012 71.0377 9.10854 71.0377 8.07016" fill="#9B9B9B"/>
<path fill-rule="evenodd" clip-rule="evenodd" d="M93.6248 25.413V25.2126C93.6248 24.9211 93.698 24.8665 93.698 24.8665L95.9677 21.5327H94.5766C94.5766 21.5327 95.144 21.806 94.7231 22.4618C94.6498 22.6986 93.1672 24.4293 93.1672 24.4293C93.1672 24.4293 91.6663 22.7168 91.6114 22.4618C91.2087 21.7878 91.7578 21.5327 91.7578 21.5327H90.3667L92.6364 24.8665C92.6364 24.8665 92.7096 24.9758 92.7096 25.2126V25.413C92.7096 26.4514 92.6913 27.344 92.6913 27.4351C92.6913 27.6719 92.4717 27.9088 92.4717 27.9088H93.0757H93.1489H93.2221H93.8262C93.8262 27.9088 93.6065 27.6719 93.6065 27.4351C93.6431 27.344 93.6248 26.4514 93.6248 25.413" fill="#9B9B9B"/>
<path fill-rule="evenodd" clip-rule="evenodd" d="M93.6248 25.413V25.2126C93.6248 24.9211 93.698 24.8665 93.698 24.8665L95.9677 21.5327H94.5766C94.5766 21.5327 95.144 21.806 94.7231 22.4618C94.6498 22.6986 93.1672 24.4293 93.1672 24.4293C93.1672 24.4293 91.6663 22.7168 91.6114 22.4618C91.2087 21.7878 91.7578 21.5327 91.7578 21.5327H90.3667L92.6364 24.8665C92.6364 24.8665 92.7096 24.9758 92.7096 25.2126V25.413C92.7096 26.4514 92.6913 27.344 92.6913 27.4351C92.6913 27.6719 92.4717 27.9088 92.4717 27.9088H93.0757H93.1489H93.2221H93.8262C93.8262 27.9088 93.6065 27.6719 93.6065 27.4351C93.6431 27.344 93.6248 26.4514 93.6248 25.413" fill="#9B9B9B"/>
<path fill-rule="evenodd" clip-rule="evenodd" d="M74.7902 7.56016C74.1496 7.19582 72.7768 7.21403 72.8134 6.13921C72.8134 5.95704 72.8317 5.68378 73.1428 5.53805C74.2594 5.00974 74.9 5.73843 75.3942 5.73843C75.3027 5.702 75.321 5.22835 75.321 4.97331C75.0648 4.86401 74.6072 4.79114 73.875 4.79114C73.0513 4.79114 71.8433 5.51983 71.8433 6.3396C71.8433 7.41442 72.8134 7.68768 73.692 7.97916C74.1679 8.14311 74.4424 8.32528 74.5889 8.47102C74.8268 8.74428 75.0282 9.07219 74.9732 9.41832C74.8817 10.0924 73.1795 10.566 71.8433 9.60049C71.8433 9.9284 71.8982 10.2745 72.0995 10.5478C72.9964 10.7482 73.3625 10.6935 73.8567 10.7117C75.1929 10.7482 75.8884 9.89197 75.8884 9.07219C75.9983 7.99737 74.7902 7.56016 74.7902 7.56016" fill="#9B9B9B"/>
<path fill-rule="evenodd" clip-rule="evenodd" d="M93.9728 32.8275C93.3322 32.4631 91.9594 32.4814 91.996 31.4065C91.996 31.2244 92.0143 30.9511 92.3255 30.8054C93.442 30.2771 94.0826 31.0058 94.5769 31.0058C94.4853 30.9693 94.5036 30.4957 94.5036 30.2406C94.2474 30.1313 93.7898 30.0585 93.0576 30.0585C92.2339 30.0585 91.0259 30.7872 91.0259 31.6069C91.0259 32.6818 91.996 32.955 92.8746 33.2465C93.3505 33.4104 93.625 33.5926 93.7715 33.7384C94.0094 34.0116 94.2108 34.3395 94.1559 34.6857C94.0643 35.3597 92.3621 35.8333 91.0442 34.8678C91.0442 35.1957 91.0991 35.5419 91.3004 35.8151C92.1973 36.0155 92.5634 35.9609 93.0576 35.9791C94.3938 36.0155 95.0894 35.1593 95.0894 34.3395C95.1809 33.2647 93.9728 32.8275 93.9728 32.8275" fill="#9B9B9B"/>
<path fill-rule="evenodd" clip-rule="evenodd" d="M69.3356 10.566C69.3356 10.566 69.1526 10.4203 69.0977 10.0377C69.0794 9.91018 68.4021 5.39231 68.4021 5.24657C68.4021 5.02796 68.695 4.86401 68.695 4.86401C68.695 4.86401 67.3222 4.79114 67.2124 5.04618C67.1025 5.30122 66.5717 7.57838 65.4918 8.68963C64.4118 7.57838 63.8627 5.283 63.7712 5.04618C63.6614 4.79114 62.2886 4.86401 62.2886 4.86401C62.2886 4.86401 62.5631 5.02796 62.5631 5.24657C62.5631 5.39231 61.8859 9.91018 61.8676 10.0377C61.8127 10.4203 61.6296 10.566 61.6296 10.566H62.9475C62.9475 10.566 62.7096 10.311 62.7096 10.0195C62.7096 9.72801 63.1489 6.52178 63.1489 6.52178C63.1489 6.52178 63.2038 6.15743 63.2038 5.99348C63.2404 5.90239 63.3136 5.95704 63.4417 6.08456C64.8878 9.72801 65.4552 10.4931 65.4552 10.4931C65.4552 10.4931 66.0409 9.74623 67.4686 6.08456C67.5967 5.95704 67.67 5.90239 67.7066 5.99348C67.7249 6.15743 67.7615 6.52178 67.7615 6.52178C67.7615 6.52178 68.2557 9.72801 68.2557 10.0195C68.2557 10.311 68.0177 10.566 68.0177 10.566H69.3356Z" fill="#9B9B9B"/>
<path fill-rule="evenodd" clip-rule="evenodd" d="M84.546 33.0642C85.2965 32.7728 85.992 32.2991 85.992 31.7526C85.992 29.7851 84.1982 30.1677 83.2647 30.1677H82.1665C82.1665 30.1677 82.3678 30.3681 82.3678 30.5685V35.6329C82.3678 35.815 82.1665 35.9608 82.1665 35.9608H83.4478C83.4478 35.9608 83.2281 35.8515 83.2281 35.6329V33.3193V32.8274V30.6778C83.4112 30.5503 83.6491 30.5685 83.8871 30.5685C84.5277 30.5685 85.0585 31.0603 85.0585 31.6797C85.0951 32.4813 84.1982 32.9185 83.5576 32.9185L83.7773 33.3375C84.1799 33.9933 86.0103 36.7988 87.1086 35.7968C87.1269 35.7604 85.7907 35.3414 84.546 33.0642" fill="#9B9B9B"/>
<path fill-rule="evenodd" clip-rule="evenodd" d="M77.92 24.5751C78.6705 24.2836 79.3661 23.81 79.3661 23.2635C79.3661 21.296 77.5723 21.6786 76.6388 21.6786H75.5405C75.5405 21.6786 75.7419 21.8789 75.7419 22.0793V27.1437C75.7419 27.3259 75.5405 27.4716 75.5405 27.4716H76.8218C76.8218 27.4716 76.6022 27.3623 76.6022 27.1437V24.8301V24.3383V22.1886C76.7852 22.0611 77.0232 22.0793 77.2611 22.0793C77.9017 22.0793 78.4326 22.5712 78.4326 23.1906C78.4692 23.9921 77.5723 24.4294 76.9316 24.4294L77.1513 24.8484C77.554 25.5042 79.3844 28.3096 80.4826 27.3077C80.5009 27.2712 79.183 26.8523 77.92 24.5751" fill="#9B9B9B"/>
</svg>
