<svg width="129" height="197" viewBox="0 0 129 197" fill="none" xmlns="http://www.w3.org/2000/svg">
<path d="M14.4316 195.24V51.1469L66.4792 61.9329V195.24" stroke="#FF7400" stroke-width="1.6" stroke-linecap="round" stroke-linejoin="round"/>
<path d="M57.5732 59.7271V28.5757L114.687 14.994V195.24" stroke="#FF7400" stroke-width="1.6" stroke-linecap="round" stroke-linejoin="round"/>
<path d="M23.6205 52.9086V34.8402" stroke="#FF7400" stroke-width="1.6" stroke-linecap="round" stroke-linejoin="round"/>
<path d="M37.8453 55.7355V41.2799" stroke="#FF7400" stroke-width="1.6" stroke-linecap="round" stroke-linejoin="round"/>
<path d="M91.9967 20.3921V8.02066" stroke="#FF7400" stroke-width="1.6" stroke-linecap="round" stroke-linejoin="round"/>
<path d="M105.578 16.7951V1" stroke="#FF7400" stroke-width="1.6" stroke-linecap="round" stroke-linejoin="round"/>
<path d="M1.4 195.24H127.8" stroke="#FF7400" stroke-width="1.6" stroke-linecap="round" stroke-linejoin="round"/>
<rect x="77.8" y="158.04" width="6.4" height="5.6" stroke="#FF7400" stroke-width="1.6"/>
<rect x="51.3999" y="154.84" width="6.4" height="5.6" stroke="#FF7400" stroke-width="1.6"/>
<rect x="51.3999" y="102.04" width="6.4" height="5.6" stroke="#FF7400" stroke-width="1.6"/>
<rect x="41.8" y="74.84" width="6.4" height="5.6" stroke="#FF7400" stroke-width="1.6"/>
<rect x="21.8" y="60.44" width="6.4" height="5.6" stroke="#FF7400" stroke-width="1.6"/>
<rect x="28.2" y="93.24" width="6.4" height="5.6" stroke="#FF7400" stroke-width="1.6"/>
<rect x="41" y="128.44" width="6.4" height="5.6" stroke="#FF7400" stroke-width="1.6"/>
<rect x="25" y="146.04" width="6.4" height="5.6" stroke="#FF7400" stroke-width="1.6"/>
<rect x="30.6001" y="174.84" width="6.4" height="5.6" stroke="#FF7400" stroke-width="1.6"/>
<rect x="97.8" y="145.24" width="6.4" height="5.6" stroke="#FF7400" stroke-width="1.6"/>
<rect x="84.2" y="124.44" width="6.4" height="5.6" stroke="#FF7400" stroke-width="1.6"/>
<rect x="97.8" y="105.24" width="6.4" height="5.6" stroke="#FF7400" stroke-width="1.6"/>
<rect x="77.8" y="95.64" width="6.4" height="5.6" stroke="#FF7400" stroke-width="1.6"/>
<rect x="98.6001" y="81.24" width="6.4" height="5.6" stroke="#FF7400" stroke-width="1.6"/>
<rect x="81" y="64.44" width="6.4" height="5.6" stroke="#FF7400" stroke-width="1.6"/>
<rect x="98.6001" y="50.84" width="6.4" height="5.6" stroke="#FF7400" stroke-width="1.6"/>
<rect x="88.2" y="30.84" width="6.4" height="5.6" stroke="#FF7400" stroke-width="1.6"/>
<rect x="68.2" y="41.24" width="6.4" height="5.6" stroke="#FF7400" stroke-width="1.6"/>
</svg>
