<svg width="37" height="37" viewBox="0 0 37 37" fill="none" xmlns="http://www.w3.org/2000/svg">
<mask id="mask0_0:723" style="mask-type:alpha" maskUnits="userSpaceOnUse" x="0" y="0" width="37" height="37">
<path fill-rule="evenodd" clip-rule="evenodd" d="M0.0161133 0.20166H36.3552V36.5569H0.0161133V0.20166Z" fill="white"/>
</mask>
<g mask="url(#mask0_0:723)">
<path fill-rule="evenodd" clip-rule="evenodd" d="M26.3225 0.20166H10.0327C4.50025 0.20166 0 4.70218 0 10.2346V26.5242C0 32.0566 4.50025 36.5569 10.0327 36.5569H26.3225C31.8549 36.5569 36.3552 32.0555 36.3552 26.5242V10.2346C36.3552 4.70218 31.8549 0.20166 26.3225 0.20166ZM33.1296 26.5242C33.1296 30.278 30.0763 33.3313 26.3225 33.3313H10.0327C6.2789 33.3313 3.2256 30.278 3.2256 26.5242V10.2346C3.2256 6.48083 6.2789 3.42726 10.0327 3.42726H26.3225C30.0763 3.42726 33.1296 6.48083 33.1296 10.2346V26.5242Z" fill="#28437F"/>
</g>
<path fill-rule="evenodd" clip-rule="evenodd" d="M18.1775 9.01233C13.0115 9.01233 8.80933 13.2145 8.80933 18.3792C8.80933 23.5453 13.0115 27.7474 18.1775 27.7474C23.3425 27.7474 27.5458 23.5453 27.5458 18.3792C27.5458 13.2145 23.3425 9.01233 18.1775 9.01233ZM18.1775 24.5207C14.7912 24.5207 12.0349 21.7666 12.0349 18.3792C12.0349 14.9931 14.7901 12.2369 18.1775 12.2369C21.565 12.2369 24.3202 14.9931 24.3202 18.3792C24.3202 21.7666 21.5639 24.5207 18.1775 24.5207Z" fill="#28437F"/>
<path fill-rule="evenodd" clip-rule="evenodd" d="M27.9385 6.27698C27.3167 6.27698 26.7066 6.52804 26.2679 6.96887C25.8257 7.40782 25.5728 8.0188 25.5728 8.64269C25.5728 9.26415 25.8268 9.87433 26.2679 10.3152C26.7057 10.7541 27.3167 11.0073 27.9385 11.0073C28.5621 11.0073 29.1701 10.7541 29.6109 10.3152C30.052 9.87433 30.3039 9.26308 30.3039 8.64269C30.3039 8.0188 30.052 7.40782 29.6109 6.96887C29.172 6.52804 28.5621 6.27698 27.9385 6.27698Z" fill="#28437F"/>
</svg>
