<svg width="181" height="181" viewBox="0 0 181 181" fill="none" xmlns="http://www.w3.org/2000/svg">
<path d="M140.2 40.2L129.8 50.6" stroke="#FF7400" stroke-width="1.6" stroke-linecap="square"/>
<path d="M139 139.8L129.8 129.8" stroke="#FF7400" stroke-width="1.6" stroke-linecap="square"/>
<path d="M40.6 139.8L50.6 129.8" stroke="#FF7400" stroke-width="1.6" stroke-linecap="square"/>
<circle cx="90.5999" cy="90.6" r="42.4" stroke="#FF7400" stroke-width="1.6"/>
<circle cx="90.5999" cy="90.6" r="55.2" stroke="#FF7400" stroke-width="1.6"/>
<circle cx="90.6" cy="10.6" r="9.6" stroke="#FF7400" stroke-width="1.6"/>
<circle cx="90.6" cy="170.6" r="9.6" stroke="#FF7400" stroke-width="1.6"/>
<circle cx="147.4" cy="33.8" r="9.6" stroke="#FF7400" stroke-width="1.6"/>
<circle cx="170.6" cy="90.6" r="9.6" stroke="#FF7400" stroke-width="1.6"/>
<circle cx="146.6" cy="146.6" r="9.6" stroke="#FF7400" stroke-width="1.6"/>
<circle cx="33.7999" cy="146.6" r="9.6" stroke="#FF7400" stroke-width="1.6"/>
<circle cx="10.6" cy="90.6" r="9.6" stroke="#FF7400" stroke-width="1.6"/>
<circle cx="33.7999" cy="33.8" r="9.6" stroke="#FF7400" stroke-width="1.6"/>
<path d="M91.4001 20.2V35.4" stroke="#FF7400" stroke-width="1.6" stroke-linecap="square"/>
<path d="M91.4001 146.6V161" stroke="#FF7400" stroke-width="1.6" stroke-linecap="square"/>
<path d="M161 89.8H145.8" stroke="#FF7400" stroke-width="1.6" stroke-linecap="square"/>
<path d="M20.6 90.2L35.4 89.8" stroke="#FF7400" stroke-width="1.6" stroke-linecap="square"/>
<path d="M40.6 40.6L50.6 50.6" stroke="#FF7400" stroke-width="1.6" stroke-linecap="square"/>
</svg>
